<svg width="42" height="40" viewBox="0 0 42 40" fill="none" xmlns="http://www.w3.org/2000/svg">
<path d="M3.64585 21.2975C3.83779 21.9954 4.13847 22.6389 4.54788 23.2292C4.95729 23.8194 5.4377 24.3298 5.99135 24.7636C6.54499 25.1963 7.1641 25.5336 7.85088 25.7744C8.53656 26.0151 9.25219 26.135 9.99889 26.135C11.1295 26.135 12.1158 25.8997 12.9591 25.4315C13.8012 24.9622 14.4758 24.4274 14.9806 23.825H19.0602C18.6752 24.6438 18.176 25.4016 17.5624 26.0995C16.9489 26.7973 16.251 27.4054 15.4688 27.9224C14.6866 28.4405 13.8322 28.8433 12.9058 29.1317C11.9794 29.4202 11.0108 29.5645 10 29.5645C8.62865 29.5645 7.33385 29.2993 6.11894 28.77C4.90292 28.2408 3.84445 27.5252 2.94242 26.622C2.04039 25.72 1.32364 24.6604 0.794408 23.4455C0.265173 22.2306 0 20.9369 0 19.5645C0 18.1931 0.264063 16.8994 0.794408 15.6834C1.32364 14.4685 2.03928 13.4089 2.94242 12.5069C3.84445 11.6048 4.90403 10.8892 6.11894 10.3589C7.33385 9.82963 8.62754 9.56445 10 9.56445C11.3714 9.56445 12.665 9.82963 13.8811 10.3589C15.096 10.8881 16.1556 11.6037 17.0576 12.5069C17.9596 13.4089 18.6764 14.4685 19.2056 15.6834C19.7348 16.8994 20 18.192 20 19.5645C20 19.8773 19.9878 20.178 19.9634 20.4665C19.939 20.755 19.9035 21.0323 19.8547 21.2964H3.64585V21.2975ZM16.3519 17.868C16.1589 17.1701 15.8649 16.52 15.4677 15.9186C15.0705 15.3173 14.5889 14.7991 14.0242 14.3664C13.4583 13.9337 12.8381 13.5964 12.1647 13.3556C11.4912 13.1149 10.7689 12.9951 9.99889 12.9951C9.25219 12.9951 8.53656 13.1215 7.85088 13.3745C7.16521 13.6275 6.53944 13.9703 5.97359 14.403C5.40774 14.8357 4.92622 15.3483 4.53012 15.9375C4.13292 16.5277 3.83779 17.1712 3.64585 17.8691H16.3519V17.868Z" fill="#FFDE02"/>
<path d="M20.6112 11.9477L23.0655 9.56554L30.3571 17.1102L37.6488 9.56554L40.1031 11.9477L32.7404 19.5644L40.1042 27.1812L37.6499 29.5633L30.3582 22.0187L23.0666 29.5633L20.6123 27.1812L27.975 19.5644L20.6112 11.9477Z" fill="#FFDE02"/>
</svg>
